<svg width="20" height="20" viewBox="0 0 20 20" fill="none" xmlns="http://www.w3.org/2000/svg">
<path fill-rule="evenodd" clip-rule="evenodd" d="M10.9953 3.42925C10.9953 2.91604 10.5792 2.5 10.066 2.5C9.55283 2.5 9.1368 2.91604 9.1368 3.42925L9.13679 9.00472L3.42925 9.00471C2.91604 9.00471 2.5 9.42075 2.5 9.93396C2.5 10.4472 2.91604 10.8632 3.42925 10.8632H9.13679L9.13679 16.5708C9.13679 17.084 9.55283 17.5 10.066 17.5C10.5792 17.5 10.9953 17.084 10.9953 16.5708L10.9953 10.8632H16.5708C17.084 10.8632 17.5 10.4472 17.5 9.93396C17.5 9.42075 17.084 9.00472 16.5708 9.00472L10.9953 9.00472L10.9953 3.42925Z" fill="#FF005C"/>
</svg>
