<svg xmlns="http://www.w3.org/2000/svg" viewBox="0 0 217 217"><defs><style>.cls-1{fill:#603913;}.cls-1,.cls-2{stroke:#231f20;}.cls-1,.cls-2,.cls-4{stroke-miterlimit:10;}.cls-2,.cls-3{fill:#fff;}.cls-4{fill:#dfdfe5;stroke:#fff;}</style></defs><g id="Layer_2" data-name="Layer 2"><g id="Layer_1-2" data-name="Layer 1"><rect class="cls-1" x="99.5" y="99.5" width="18" height="117"/><circle class="cls-2" cx="144.5" cy="72.5" r="72"/><circle class="cls-2" cx="72.5" cy="72.5" r="72"/><path class="cls-3" d="M113.44,16.4a61,61,0,0,1,13.37,7.8V19.88a4.24,4.24,0,0,1-5.34-1l-3,3.93a66.53,66.53,0,0,1,14.68,10.82,2.5,2.5,0,0,0,3.28.19,2.54,2.54,0,0,0,.64-3.22,8.32,8.32,0,0,0-9.43-4.44,2.53,2.53,0,0,0-1.11,4.18,58.19,58.19,0,0,1,13.43,24.3l4.18-2.44A5.12,5.12,0,0,1,142,47.22l-4.82-1.33a69.52,69.52,0,0,0,1.53,28c.76,2.87,4.66,2,4.91-.66a148.46,148.46,0,0,0,.63-17.13l-4.91.66A66.72,66.72,0,0,1,141,76.92h5l-.32-9.07c-.11-3.2-5-3.23-5,0a72.92,72.92,0,0,1-5.14,27.46l4.82,1.33L143.29,84c.72-3.12-4-4.45-4.82-1.33l-7.11,26.84,4.83,1.33a101.87,101.87,0,0,1,5.35-19.54L136.72,90l-2,14.35a2.58,2.58,0,0,0,1.75,3.07,2.51,2.51,0,0,0,3.07-1.74l1.63-10.09a2.54,2.54,0,0,0-1.44-3,2.51,2.51,0,0,0-3.13,1L123.94,116.5l-1.83,3.3,4.57,1.93,1.14-6.14a2.52,2.52,0,0,0-1.45-3,2.48,2.48,0,0,0-3.12,1,33.87,33.87,0,0,1-11,13.72l3.42,3.42,12.18-25.28,1.73-3.58-4.57-.6a38.07,38.07,0,0,1,2.68,12.59c.08,2.28,3.56,3.66,4.66,1.26a33.84,33.84,0,0,0,3.11-15.73c-.11-2.38-3.4-3.52-4.65-1.26a38.61,38.61,0,0,0-4.42,12.65l4.91.67a168.93,168.93,0,0,0-.73-26.8c-.24-2.24-.53-4.48-.85-6.71-.3-2.06-.33-4.5-1.65-6.19A4.69,4.69,0,0,0,119.49,74a24.8,24.8,0,0,0,1.21,13.9,2.52,2.52,0,0,0,4.82,0,72,72,0,0,0,1.59-38.7c-.74-3.13-5.56-1.81-4.82,1.33a66.9,66.9,0,0,1-1.59,36h4.82a21,21,0,0,1-1.47-6.19,21.25,21.25,0,0,1,0-3.09c.06-.85.33-1.68.38-2.52,0-.55.17-.17,0-.11s-.37.17-.35.13a15,15,0,0,0,.4,1.85q.54,3.41,1,6.83a168,168,0,0,1,.86,28c-.14,2.76,4.47,3.47,4.92.66a34.16,34.16,0,0,1,3.9-11.45l-4.66-1.27A28.43,28.43,0,0,1,128,112.67l4.66,1.26A42.26,42.26,0,0,0,129.78,100a2.55,2.55,0,0,0-2.08-1.79,2.48,2.48,0,0,0-2.49,1.19L113,124.7l-1.73,3.58a2.62,2.62,0,0,0,.39,3,2.52,2.52,0,0,0,3,.39,38.7,38.7,0,0,0,12.85-15.52L123,114.26l-1.14,6.14a2.51,2.51,0,0,0,4.57,1.93l12.64-22.85,1.82-3.3-4.57-1.93-1.63,10.09,4.82,1.33,2-14.35A2.5,2.5,0,0,0,136.72,90a102.84,102.84,0,0,0-5.36,19.54,2.59,2.59,0,0,0,1.75,3.08,2.54,2.54,0,0,0,3.08-1.75L143.29,84l-4.82-1.33-2.89,12.62c-.73,3.2,3.66,4.27,4.82,1.33a76.82,76.82,0,0,0,5.32-28.79h-5l.32,9.07a2.5,2.5,0,0,0,5,0,71.53,71.53,0,0,0-1.87-21.53c-.67-2.74-5-2.16-4.92.66a148.46,148.46,0,0,1-.63,17.13l4.91-.67A63.45,63.45,0,0,1,142,47.22a2.58,2.58,0,0,0-1.74-3.08,2.54,2.54,0,0,0-3.08,1.75,10,10,0,0,0,3.39,9.81,2.61,2.61,0,0,0,3,.39,2.55,2.55,0,0,0,1.15-2.82A63.65,63.65,0,0,0,130,26.76l-1.1,4.18a3.38,3.38,0,0,1,3.79,2.14l3.92-3A72,72,0,0,0,121,18.45a2.51,2.51,0,0,0-3,3.93,9.27,9.27,0,0,0,11.4,1.82c1.8-1,1.42-3.23,0-4.32A61.61,61.61,0,0,0,116,12.08a2.59,2.59,0,0,0-3.42.9,2.51,2.51,0,0,0,.89,3.42Z"/><path class="cls-3" d="M145.67,98.81l2.08-15.58c.3-2.23-2.88-3.19-4.27-1.77A15.41,15.41,0,0,0,139.11,94a2.5,2.5,0,0,0,5,0,185.31,185.31,0,0,0,.21-29.8c-.21-2.74-4.08-3.47-4.91-.66a44.65,44.65,0,0,0-1,20.74c.45,2.45,4.28,2.32,4.82,0a103.08,103.08,0,0,0,2.69-24.38c0-2.74-4.28-3.48-4.91-.66L135.46,84l4.82,1.33a8.89,8.89,0,0,0-2.89-8.85c-1.31-1.06-3.81-.94-4.18,1.1q-2.67,14.77-5.35,29.55c-1,5.54-2.57,13.67-8.62,15.74l2.82,3.67a144.43,144.43,0,0,0,12.22-25c1-2.63-3.45-4.54-4.57-1.93-4.63,10.77-9.52,22-18.83,29.63l4.17,1.1L110.14,115,105.57,117c2.24,3.55,9.56,11,13.39,5.37a16.19,16.19,0,0,0,1.57-3.62c.54-1.46,1.07-2.93,1.58-4.4,1-2.81,1.85-5.63,2.66-8.48A176.72,176.72,0,0,0,131,71.14c.25-3.24.56-6.56.49-9.81-.06-2.73-2-6.46-5.29-5.29L129,59.72a21,21,0,0,0,2.59-10.57c-.1-3.33-.76-7.7-4.54-8.69s-6.84,2.19-7,5.79,2.38,6.32,5,8.36a2.55,2.55,0,0,0,3.54,0,11.41,11.41,0,0,0,2.85-10.3,9.12,9.12,0,0,0-8.7-6.89c-3.84.07-6.75,2.76-8.1,6.2-1.66,4.2-.34,8.75,1,12.83,1,3,5.85,1.73,4.83-1.33-.91-2.71-2.17-6-1.47-8.79.44-1.77,1.5-3.65,3.39-3.89a4,4,0,0,1,4.21,3.2,6.2,6.2,0,0,1-1.57,5.43h3.54c-1.31-1-3.12-2.31-3.47-4a1.8,1.8,0,0,1,.29-1.61c.15-.14.4-.19.5-.07a5.3,5.3,0,0,1,.58,2.17,16,16,0,0,1,.1,3.32,15.47,15.47,0,0,1-1.88,6.36c-1,1.79.67,4.44,2.83,3.67-.17.06-1.44-.5-1.34-.6s.14.38.14.21c0,.28.14.54.15.71a32,32,0,0,1-.1,3.66c-.1,2.41-.26,4.83-.46,7.23q-.62,7.25-1.85,14.41a173.5,173.5,0,0,1-7.33,28c-.47,1.33-1,2.64-1.46,3.95,0,.06-.49,1.09-.48,1.1l.36-.11c.43-.06.49-.11.18-.17a4.25,4.25,0,0,0-.68-.31,13.42,13.42,0,0,1-4.78-4.54c-1.46-2.32-5.47-.87-4.57,1.92l4.91,15.3a2.54,2.54,0,0,0,4.18,1.1c9.64-7.84,14.83-19.49,19.62-30.64l-4.57-1.92A137.81,137.81,0,0,1,117.74,124c-1.1,1.8.75,4.39,2.83,3.68,5.89-2,9-7.43,10.69-13.11a87.87,87.87,0,0,0,2-9.51l2.2-12.11,2.54-14L133.85,80a4,4,0,0,1,1.61,4c-.7,3.14,4.12,4.48,4.82,1.33l5.51-24.77-4.91-.67a97.17,97.17,0,0,1-2.51,23.05h4.82a39,39,0,0,1,1-18.08l-4.91-.67a185.31,185.31,0,0,1-.21,29.8h5A10.66,10.66,0,0,1,147,85l-4.27-1.76-2.08,15.58c-.18,1.34,1.28,2.5,2.5,2.5a2.57,2.57,0,0,0,2.5-2.5Z"/><path class="cls-4" d="M117.5,126.5c.31-6.45,75.36-90,81-90,5.17,0,20.63,41.39,0,72-14.05,20.86-41.07,31.1-63,27C127.81,134.06,117.32,130.22,117.5,126.5Z"/></g></g></svg>