<svg width="20" height="16" viewBox="0 0 20 16" fill="none" xmlns="http://www.w3.org/2000/svg">
<path fill-rule="evenodd" clip-rule="evenodd" d="M9.32282 15.8806L10.0037 14L10.709 15.8716C10.2628 16.0396 9.7712 16.0428 9.32282 15.8806ZM8.5469 3.12301C7.76721 2.54309 6.7364 2 5.61013 2C3.08386 2 1.60104 4 2.09532 6.74519C2.94156 11.4452 10.0037 14 10.0037 14C9.32282 15.8806 9.32229 15.8804 9.32173 15.8802L9.31746 15.8787L9.30951 15.8758L9.28595 15.8671C9.2669 15.86 9.2412 15.8503 9.20927 15.8381C9.14544 15.8137 9.05657 15.779 8.94597 15.7342C8.72502 15.6445 8.41591 15.5135 8.04548 15.3419C7.30872 15.0004 6.30876 14.4885 5.26999 13.8078C3.30173 12.5181 0.703272 10.3044 0.126225 7.09947C-0.195952 5.31009 0.0901695 3.53226 1.11225 2.15279C2.15638 0.743544 3.78724 0 5.61013 0C7.48096 0 9.01731 0.946 9.94859 1.67693C9.96709 1.69144 9.98544 1.70595 10.0037 1.72045C10.0219 1.70595 10.0402 1.69144 10.0587 1.67693C10.99 0.946 12.5263 0 14.3972 0C18.5048 0 20.5659 3.99583 19.866 7.17504C19.1781 10.2994 16.6301 12.4889 14.6819 13.7859C13.6585 14.4672 12.6789 14.9822 11.9576 15.3268C11.595 15.4999 11.293 15.6323 11.0772 15.7231C10.9691 15.7685 10.8823 15.8036 10.82 15.8284C10.7888 15.8408 10.7637 15.8506 10.7451 15.8578L10.7221 15.8666L10.7143 15.8696L10.7101 15.8712C10.7095 15.8714 10.709 15.8716 10.0037 14C10.0037 14 16.8854 11.4083 17.912 6.74519C18.4063 4.5 16.9234 2 14.3972 2C13.2709 2 12.2401 2.54309 11.4604 3.12301C10.5673 3.78734 10.0037 4.5 10.0037 4.5C10.0037 4.5 9.44005 3.78734 8.5469 3.12301Z" fill="#F04A4A"/>
</svg>
