<svg width="4" height="14" viewBox="0 0 4 14" fill="none" xmlns="http://www.w3.org/2000/svg">
<path fill-rule="evenodd" clip-rule="evenodd" d="M0.5 12.25C0.5 13.0784 1.17157 13.75 2 13.75C2.82843 13.75 3.5 13.0784 3.5 12.25C3.5 11.4216 2.82843 10.75 2 10.75C1.17157 10.75 0.5 11.4216 0.5 12.25ZM0.5 7C0.5 7.82843 1.17157 8.5 2 8.5C2.82843 8.5 3.5 7.82843 3.5 7C3.5 6.17157 2.82843 5.5 2 5.5C1.17157 5.5 0.5 6.17157 0.5 7ZM2 3.25C1.17157 3.25 0.5 2.57843 0.499999 1.75C0.499999 0.921574 1.17157 0.25 2 0.25C2.82843 0.25 3.5 0.921574 3.5 1.75C3.5 2.57843 2.82843 3.25 2 3.25Z" fill="#484860"/>
</svg>
