<svg width="12" height="20" viewBox="0 0 12 20" fill="none" xmlns="http://www.w3.org/2000/svg">
<path fill-rule="evenodd" clip-rule="evenodd" d="M2 3.01777C2 2.46221 2.44772 2.01185 3 2.01185H9C9.55228 2.01185 10 2.46221 10 3.01777V17.4803C10 17.9157 9.48728 18.1454 9.16552 17.8541L6.66896 15.5939C6.28866 15.2496 5.71134 15.2496 5.33104 15.5939L2.83448 17.8541C2.51272 18.1454 2 17.9157 2 17.4803V3.01777ZM3 0H9C10.6569 0 12 1.3511 12 3.01777V17.4803C12 19.6575 9.43639 20.806 7.82759 19.3495L6 17.6949L4.17241 19.3495C2.5636 20.806 0 19.6575 0 17.4803V3.01777C0 1.3511 1.34315 0 3 0Z" fill="#3D3DF2"/>
</svg>
